<svg width="40" height="40" viewBox="0 0 40 40" fill="none" xmlns="http://www.w3.org/2000/svg">
<path d="M39.5381 0.485366C39.3129 0.261499 39.0284 0.106503 38.7181 0.0385996C38.4077 -0.0293034 38.0844 -0.00728978 37.7861 0.102052L1.07684 13.4347C0.760249 13.5546 0.487686 13.7679 0.295348 14.0463C0.10301 14.3246 0 14.6548 0 14.993C0 15.3311 0.10301 15.6613 0.295348 15.9396C0.487686 16.218 0.760249 16.4313 1.07684 16.5512L17.0954 22.9509L23.5029 38.9501C23.6232 39.2524 23.8296 39.5129 24.0964 39.6994C24.3633 39.886 24.679 39.9905 25.0046 40C25.3418 39.9931 25.669 39.8843 25.943 39.6879C26.2171 39.4916 26.4251 39.2169 26.5397 38.9001L39.8885 2.23528C40.0022 1.94042 40.0296 1.61936 39.9676 1.30953C39.9056 0.999701 39.7566 0.713871 39.5381 0.485366ZM25.0046 33.667L20.3492 22.0009L28.3418 14.018L25.9891 11.6681L17.9297 19.7177L6.31625 15.0013L35.5669 4.45183L25.0046 33.667Z" fill="white"/>
</svg>
